<svg xmlns="http://www.w3.org/2000/svg" width="34.875" height="34.875" viewBox="0 0 34.875 34.875">
  <path id="Icon_awesome-arrow-circle-down" data-name="Icon awesome-arrow-circle-down" d="M35.438,18A17.438,17.438,0,1,1,18,.563,17.434,17.434,0,0,1,35.438,18Zm-10.1-2.032L20.25,21.277V8.438A1.683,1.683,0,0,0,18.563,6.75H17.438A1.683,1.683,0,0,0,15.75,8.438V21.277l-5.091-5.309a1.689,1.689,0,0,0-2.412-.028l-.766.773a1.681,1.681,0,0,0,0,2.384l9.323,9.33a1.681,1.681,0,0,0,2.384,0l9.33-9.33a1.681,1.681,0,0,0,0-2.384l-.766-.773a1.689,1.689,0,0,0-2.412.028Z" transform="translate(-0.563 -0.563)"/>
</svg>
