<svg xmlns="http://www.w3.org/2000/svg" width="25" height="22.522" viewBox="0 0 25 22.522">
  <path id="Icon_awesome-arrow-left" data-name="Icon awesome-arrow-left" d="M14.367,23.66l-1.239,1.145a1.412,1.412,0,0,1-1.892,0L.39,14.785a1.168,1.168,0,0,1,0-1.748L11.237,3.011a1.412,1.412,0,0,1,1.892,0l1.239,1.145a1.175,1.175,0,0,1-.022,1.769L7.621,11.845H23.657A1.288,1.288,0,0,1,25,13.083v1.65a1.288,1.288,0,0,1-1.339,1.238H7.621l6.723,5.921A1.167,1.167,0,0,1,14.367,23.66Z" transform="translate(0.004 -2.647)" fill="#fff"/>
</svg>
