<svg xmlns="http://www.w3.org/2000/svg" width="33" height="18" viewBox="0 0 33 18">
  <path id="Icon_material-timeline" data-name="Icon material-timeline" d="M34.5,12a3.009,3.009,0,0,1-3,3,2.549,2.549,0,0,1-.765-.1L25.4,20.22a2.65,2.65,0,0,1,.1.78,3,3,0,1,1-6,0,2.65,2.65,0,0,1,.1-.78L15.78,16.4a2.95,2.95,0,0,1-1.56,0L7.4,23.235A2.549,2.549,0,0,1,7.5,24a3,3,0,1,1-3-3,2.549,2.549,0,0,1,.765.1l6.84-6.825A2.65,2.65,0,0,1,12,13.5a3,3,0,0,1,6,0,2.65,2.65,0,0,1-.1.78L21.72,18.1a2.95,2.95,0,0,1,1.56,0l5.325-5.34A2.549,2.549,0,0,1,28.5,12a3,3,0,0,1,6,0Z" transform="translate(-1.5 -9)" fill="#fff"/>
</svg>
