<svg xmlns="http://www.w3.org/2000/svg" width="48.257" height="35" viewBox="0 0 48.257 35">
  <path id="Icon_material-people" data-name="Icon material-people" d="M34.4,22.5c3.641,0,6.559-3.35,6.559-7.5S38.043,7.5,34.4,7.5s-6.58,3.35-6.58,7.5S30.761,22.5,34.4,22.5Zm-17.548,0c3.641,0,6.559-3.35,6.559-7.5S20.5,7.5,16.854,7.5s-6.58,3.35-6.58,7.5S13.213,22.5,16.854,22.5Zm0,5C11.744,27.5,1.5,30.425,1.5,36.25V42.5H32.209V36.25C32.209,30.425,21.965,27.5,16.854,27.5Zm17.548,0c-.636,0-1.36.05-2.128.125A10.926,10.926,0,0,1,36.6,36.25V42.5H49.757V36.25C49.757,30.425,39.513,27.5,34.4,27.5Z" transform="translate(-1.5 -7.5)"/>
</svg>
