<svg xmlns="http://www.w3.org/2000/svg" xmlns:xlink="http://www.w3.org/1999/xlink" width="62.046" height="60.241" viewBox="0 0 62.046 60.241">
  <defs>
    <filter id="Icon_material-library-add" x="0" y="0" width="62.046" height="60.241" filterUnits="userSpaceOnUse">
      <feOffset dy="3" input="SourceAlpha"/>
      <feGaussianBlur stdDeviation="3" result="blur"/>
      <feFlood flood-opacity="0.161"/>
      <feComposite operator="in" in2="blur"/>
      <feComposite in="SourceGraphic"/>
    </filter>
  </defs>
  <g transform="matrix(1, 0, 0, 1, 0, 0)" filter="url(#Icon_material-library-add)">
    <path id="Icon_material-library-add-2" data-name="Icon material-library-add" d="M7.4,11.448H3V41.017a4.33,4.33,0,0,0,4.4,4.224H38.237V41.017H7.4ZM42.641,3H16.214a4.33,4.33,0,0,0-4.4,4.224V32.569a4.33,4.33,0,0,0,4.4,4.224H42.641a4.33,4.33,0,0,0,4.4-4.224V7.224A4.33,4.33,0,0,0,42.641,3Zm-2.2,19.008H31.63v8.448h-4.4V22.008H18.416V17.784h8.809V9.336h4.4v8.448h8.809Z" transform="translate(6 3)" fill="#697c77"/>
  </g>
</svg>
