<svg xmlns="http://www.w3.org/2000/svg" width="35" height="32" viewBox="0 0 35 32">
  <path id="Icon_material-add-a-photo" data-name="Icon material-add-a-photo" d="M4.549,6.23v-5h3v5h4v3h-4v4h-3v-4h-5v-3Zm4,9v-5h5v-4h10l3,3h5a3.009,3.009,0,0,1,3,3v18a3.009,3.009,0,0,1-3,3h-24a3.009,3.009,0,0,1-3-3v-15Zm11,13a6.677,6.677,0,0,0,7-7c0-4.14-2.86-8-7-8a8.385,8.385,0,0,0-8,8C11.549,25.37,15.409,28.23,19.549,28.23Zm-5-7a5.143,5.143,0,0,0,5,5,5.143,5.143,0,0,0,5-5,5.143,5.143,0,0,0-5-5A5.143,5.143,0,0,0,14.549,21.23Z" transform="translate(0.451 -1.23)"/>
</svg>
