<svg xmlns="http://www.w3.org/2000/svg" width="30.849" height="28.921" viewBox="0 0 30.849 28.921">
  <path id="Icon_metro-tree" data-name="Icon metro-tree" d="M31.973,25.064h-.482V18.8a3.378,3.378,0,0,0-3.374-3.374H19.923V11.568h.482a1.45,1.45,0,0,0,1.446-1.446V5.3a1.45,1.45,0,0,0-1.446-1.446h-4.82A1.45,1.45,0,0,0,14.139,5.3v4.82a1.45,1.45,0,0,0,1.446,1.446h.482v3.856H7.873A3.378,3.378,0,0,0,4.5,18.8v6.266H4.017A1.45,1.45,0,0,0,2.571,26.51v4.82a1.45,1.45,0,0,0,1.446,1.446h4.82a1.45,1.45,0,0,0,1.446-1.446V26.51a1.45,1.45,0,0,0-1.446-1.446H8.355V19.28h7.712v5.784h-.482a1.45,1.45,0,0,0-1.446,1.446v4.82a1.45,1.45,0,0,0,1.446,1.446h4.82a1.45,1.45,0,0,0,1.446-1.446V26.51a1.45,1.45,0,0,0-1.446-1.446h-.482V19.28h7.712v5.784h-.482a1.45,1.45,0,0,0-1.446,1.446v4.82a1.45,1.45,0,0,0,1.446,1.446h4.82a1.45,1.45,0,0,0,1.446-1.446V26.51a1.45,1.45,0,0,0-1.446-1.446ZM8.355,30.849H4.5V26.992H8.355v3.856Zm11.568,0H16.067V26.992h3.856v3.856ZM16.067,9.64V5.784h3.856V9.64H16.067ZM31.491,30.849H27.635V26.992h3.856v3.856Z" transform="translate(-2.571 -3.856)"/>
</svg>
