<svg xmlns="http://www.w3.org/2000/svg" width="34.875" height="34.875" viewBox="0 0 34.875 34.875">
  <path id="Icon_awesome-arrow-alt-circle-left" data-name="Icon awesome-arrow-alt-circle-left" d="M18,35.438A17.438,17.438,0,1,1,35.438,18,17.434,17.434,0,0,1,18,35.438Zm8.156-20.531H18V9.921a.844.844,0,0,0-1.441-.6L8.522,17.4a.836.836,0,0,0,0,1.188l8.037,8.079a.844.844,0,0,0,1.441-.6V21.094h8.156A.846.846,0,0,0,27,20.25v-4.5A.846.846,0,0,0,26.156,14.906Z" transform="translate(-0.563 -0.563)"/>
</svg>
